<svg id="visual" viewBox="0 0 900 450" width="900" height="450" xmlns="http://www.w3.org/2000/svg" xmlns:xlink="http://www.w3.org/1999/xlink" version="1.1"><path d="M0 424L15 426.2C30 428.3 60 432.7 90 432.3C120 432 150 427 180 423.2C210 419.3 240 416.7 270 418C300 419.3 330 424.7 360 425.5C390 426.3 420 422.7 450 420.8C480 419 510 419 540 417.8C570 416.7 600 414.3 630 414.2C660 414 690 416 720 417.2C750 418.3 780 418.7 810 420.3C840 422 870 425 885 426.5L900 428L900 451L885 451C870 451 840 451 810 451C780 451 750 451 720 451C690 451 660 451 630 451C600 451 570 451 540 451C510 451 480 451 450 451C420 451 390 451 360 451C330 451 300 451 270 451C240 451 210 451 180 451C150 451 120 451 90 451C60 451 30 451 15 451L0 451Z" fill="#AED36C" stroke-linecap="round" stroke-linejoin="miter"></path></svg>