<svg id="visual" viewBox="0 0 900 450" width="900" height="450" xmlns="http://www.w3.org/2000/svg" xmlns:xlink="http://www.w3.org/1999/xlink" version="1.1"><path d="M0 438L15 438.3C30 438.7 60 439.3 90 435.8C120 432.3 150 424.7 180 421.5C210 418.3 240 419.7 270 420.2C300 420.7 330 420.3 360 422.5C390 424.7 420 429.3 450 428C480 426.7 510 419.3 540 416.2C570 413 600 414 630 414.3C660 414.7 690 414.3 720 417C750 419.7 780 425.3 810 427.2C840 429 870 427 885 426L900 425L900 451L885 451C870 451 840 451 810 451C780 451 750 451 720 451C690 451 660 451 630 451C600 451 570 451 540 451C510 451 480 451 450 451C420 451 390 451 360 451C330 451 300 451 270 451C240 451 210 451 180 451C150 451 120 451 90 451C60 451 30 451 15 451L0 451Z" fill="#AED36C" stroke-linecap="round" stroke-linejoin="miter"></path></svg>