<svg id="visual" viewBox="0 0 900 450" width="900" height="450" xmlns="http://www.w3.org/2000/svg" xmlns:xlink="http://www.w3.org/1999/xlink" version="1.1"><path d="M0 436L15 434.3C30 432.7 60 429.3 90 427.2C120 425 150 424 180 426.2C210 428.3 240 433.7 270 432.8C300 432 330 425 360 422.8C390 420.7 420 423.3 450 426.3C480 429.3 510 432.7 540 435C570 437.3 600 438.7 630 434.7C660 430.7 690 421.3 720 417.3C750 413.3 780 414.7 810 417.2C840 419.7 870 423.3 885 425.2L900 427L900 451L885 451C870 451 840 451 810 451C780 451 750 451 720 451C690 451 660 451 630 451C600 451 570 451 540 451C510 451 480 451 450 451C420 451 390 451 360 451C330 451 300 451 270 451C240 451 210 451 180 451C150 451 120 451 90 451C60 451 30 451 15 451L0 451Z" fill="#AED36C" stroke-linecap="round" stroke-linejoin="miter"></path></svg>