<svg id="visual" viewBox="0 0 450 900" width="450" height="900" xmlns="http://www.w3.org/2000/svg" xmlns:xlink="http://www.w3.org/1999/xlink" version="1.1"><rect x="0" y="0" width="450" height="900" fill="#FFFFFF"></rect><defs><linearGradient id="grad1_0" x1="0%" y1="0%" x2="100%" y2="100%"><stop offset="30%" stop-color="#ffffff" stop-opacity="1"></stop><stop offset="70%" stop-color="#ffffff" stop-opacity="1"></stop></linearGradient></defs><defs><linearGradient id="grad2_0" x1="0%" y1="0%" x2="100%" y2="100%"><stop offset="30%" stop-color="#ffffff" stop-opacity="1"></stop><stop offset="70%" stop-color="#ffffff" stop-opacity="1"></stop></linearGradient></defs><g transform="translate(450, 0)"><path d="M0 450C-24.6 440.2 -49.3 430.4 -75.2 426.4C-101.1 422.5 -128.3 424.3 -151.2 415.3C-174 406.4 -192.6 386.6 -216.5 375C-240.4 363.4 -269.6 360.1 -289.3 344.7C-308.9 329.4 -319 302 -334 280.3C-349 258.5 -368.9 242.5 -385.4 222.5C-401.9 202.5 -415 178.5 -421 153.2C-426.9 128 -425.7 101.5 -429.4 75.7C-433 50 -441.5 25 -450 0L0 0Z" fill="#AED36C"></path></g><g transform="translate(0, 900)"><path d="M0 -450C25.7 -443.7 51.5 -437.4 75.9 -430.4C100.3 -423.3 123.5 -415.4 149.5 -410.6C175.5 -405.9 204.3 -404.3 225 -389.7C245.7 -375.1 258.2 -347.6 274.5 -327.1C290.8 -306.6 310.9 -293.1 330.2 -277C349.5 -261 367.9 -242.3 383.6 -221.5C399.4 -200.7 412.3 -177.6 421 -153.2C429.7 -128.8 434.1 -103 438.2 -77.3C442.4 -51.5 446.2 -25.8 450 0L0 0Z" fill="#AED36C"></path></g></svg>