<svg id="visual" viewBox="0 0 900 500" width="900" height="500" xmlns="http://www.w3.org/2000/svg" xmlns:xlink="http://www.w3.org/1999/xlink" version="1.1"><path d="M0 394L21.5 392.8C43 391.7 86 389.3 128.8 386.2C171.7 383 214.3 379 257.2 388.7C300 398.3 343 421.7 385.8 419.7C428.7 417.7 471.3 390.3 514.2 375.2C557 360 600 357 642.8 362.5C685.7 368 728.3 382 771.2 387.3C814 392.7 857 389.3 878.5 387.7L900 386L900 501L878.5 501C857 501 814 501 771.2 501C728.3 501 685.7 501 642.8 501C600 501 557 501 514.2 501C471.3 501 428.7 501 385.8 501C343 501 300 501 257.2 501C214.3 501 171.7 501 128.8 501C86 501 43 501 21.5 501L0 501Z" fill="#FFFFFF" stroke-linecap="round" stroke-linejoin="miter"></path></svg>