<svg xmlns="http://www.w3.org/2000/svg" xmlns:xlink="http://www.w3.org/1999/xlink" width="600" zoomAndPan="magnify" viewBox="0 0 450 513.750007" height="685" preserveAspectRatio="xMidYMid meet" version="1.0"><defs><filter x="0%" y="0%" width="100%" height="100%" id="44e2081889"><feColorMatrix values="0 0 0 0 1 0 0 0 0 1 0 0 0 0 1 0 0 0 1 0" color-interpolation-filters="sRGB"/></filter><mask id="55addd5154"><g filter="url(#44e2081889)"><rect x="-45" width="540" fill="#000000" y="-51.375001" height="616.500008" fill-opacity="0.3765"/></g></mask><clipPath id="66256a4819"><path d="M 19 5 L 32 5 L 32 20 L 19 20 Z M 19 5 " clip-rule="nonzero"/></clipPath><clipPath id="02b491947c"><path d="M 11.972656 0.898438 L 56.046875 15.648438 L 45.101562 48.347656 L 1.027344 33.597656 Z M 11.972656 0.898438 " clip-rule="nonzero"/></clipPath><clipPath id="471bc6e59e"><path d="M 11.972656 0.898438 L 56.046875 15.648438 L 45.101562 48.347656 L 1.027344 33.597656 Z M 11.972656 0.898438 " clip-rule="nonzero"/></clipPath><clipPath id="5ed8519c25"><path d="M 31 10 L 45 10 L 45 24 L 31 24 Z M 31 10 " clip-rule="nonzero"/></clipPath><clipPath id="75238e7637"><path d="M 11.972656 0.898438 L 56.046875 15.648438 L 45.101562 48.347656 L 1.027344 33.597656 Z M 11.972656 0.898438 " clip-rule="nonzero"/></clipPath><clipPath id="ce28a7b131"><path d="M 11.972656 0.898438 L 56.046875 15.648438 L 45.101562 48.347656 L 1.027344 33.597656 Z M 11.972656 0.898438 " clip-rule="nonzero"/></clipPath><clipPath id="187f443cfd"><path d="M 7 10 L 20 10 L 20 25 L 7 25 Z M 7 10 " clip-rule="nonzero"/></clipPath><clipPath id="8f425b7069"><path d="M 11.972656 0.898438 L 56.046875 15.648438 L 45.101562 48.347656 L 1.027344 33.597656 Z M 11.972656 0.898438 " clip-rule="nonzero"/></clipPath><clipPath id="d4a3622ecd"><path d="M 11.972656 0.898438 L 56.046875 15.648438 L 45.101562 48.347656 L 1.027344 33.597656 Z M 11.972656 0.898438 " clip-rule="nonzero"/></clipPath><clipPath id="d7a71b7641"><path d="M 38 22 L 52 22 L 52 35 L 38 35 Z M 38 22 " clip-rule="nonzero"/></clipPath><clipPath id="a5485c01bf"><path d="M 11.972656 0.898438 L 56.046875 15.648438 L 45.101562 48.347656 L 1.027344 33.597656 Z M 11.972656 0.898438 " clip-rule="nonzero"/></clipPath><clipPath id="86768a223c"><path d="M 11.972656 0.898438 L 56.046875 15.648438 L 45.101562 48.347656 L 1.027344 33.597656 Z M 11.972656 0.898438 " clip-rule="nonzero"/></clipPath><clipPath id="8d535e12ea"><path d="M 14 22 L 37 22 L 37 44 L 14 44 Z M 14 22 " clip-rule="nonzero"/></clipPath><clipPath id="eff2f5a70d"><path d="M 11.972656 0.898438 L 56.046875 15.648438 L 45.101562 48.347656 L 1.027344 33.597656 Z M 11.972656 0.898438 " clip-rule="nonzero"/></clipPath><clipPath id="62fb8c85a5"><path d="M 11.972656 0.898438 L 56.046875 15.648438 L 45.101562 48.347656 L 1.027344 33.597656 Z M 11.972656 0.898438 " clip-rule="nonzero"/></clipPath><clipPath id="297d2307a4"><rect x="0" width="57" y="0" height="49"/></clipPath><mask id="869b6d345f"><g filter="url(#44e2081889)"><rect x="-45" width="540" fill="#000000" y="-51.375001" height="616.500008" fill-opacity="0.3765"/></g></mask><clipPath id="eee0381e28"><path d="M 14 12 L 28 12 L 28 28 L 14 28 Z M 14 12 " clip-rule="nonzero"/></clipPath><clipPath id="96114f01d7"><path d="M 1.136719 20.5625 L 47.851562 0.15625 L 63.15625 35.191406 L 16.441406 55.597656 Z M 1.136719 20.5625 " clip-rule="nonzero"/></clipPath><clipPath id="990ce65e4e"><path d="M 1.136719 20.5625 L 47.851562 0.15625 L 63.15625 35.191406 L 16.441406 55.597656 Z M 1.136719 20.5625 " clip-rule="nonzero"/></clipPath><clipPath id="3a4be63de0"><path d="M 27 6 L 41 6 L 41 23 L 27 23 Z M 27 6 " clip-rule="nonzero"/></clipPath><clipPath id="59ea5b7005"><path d="M 1.136719 20.5625 L 47.851562 0.15625 L 63.15625 35.191406 L 16.441406 55.597656 Z M 1.136719 20.5625 " clip-rule="nonzero"/></clipPath><clipPath id="14f12bb971"><path d="M 1.136719 20.5625 L 47.851562 0.15625 L 63.15625 35.191406 L 16.441406 55.597656 Z M 1.136719 20.5625 " clip-rule="nonzero"/></clipPath><clipPath id="1ccf550077"><path d="M 6 27 L 22 27 L 22 41 L 6 41 Z M 6 27 " clip-rule="nonzero"/></clipPath><clipPath id="112fd9f7a9"><path d="M 1.136719 20.5625 L 47.851562 0.15625 L 63.15625 35.191406 L 16.441406 55.597656 Z M 1.136719 20.5625 " clip-rule="nonzero"/></clipPath><clipPath id="6808b46051"><path d="M 1.136719 20.5625 L 47.851562 0.15625 L 63.15625 35.191406 L 16.441406 55.597656 Z M 1.136719 20.5625 " clip-rule="nonzero"/></clipPath><clipPath id="c41c794091"><path d="M 41 11 L 55 11 L 55 27 L 41 27 Z M 41 11 " clip-rule="nonzero"/></clipPath><clipPath id="90e9cab109"><path d="M 1.136719 20.5625 L 47.851562 0.15625 L 63.15625 35.191406 L 16.441406 55.597656 Z M 1.136719 20.5625 " clip-rule="nonzero"/></clipPath><clipPath id="77603aa1f3"><path d="M 1.136719 20.5625 L 47.851562 0.15625 L 63.15625 35.191406 L 16.441406 55.597656 Z M 1.136719 20.5625 " clip-rule="nonzero"/></clipPath><clipPath id="74b1a726ed"><path d="M 23 25 L 49 25 L 49 49 L 23 49 Z M 23 25 " clip-rule="nonzero"/></clipPath><clipPath id="4e94a326a2"><path d="M 1.136719 20.5625 L 47.851562 0.15625 L 63.15625 35.191406 L 16.441406 55.597656 Z M 1.136719 20.5625 " clip-rule="nonzero"/></clipPath><clipPath id="e2effa5bb3"><path d="M 1.136719 20.5625 L 47.851562 0.15625 L 63.15625 35.191406 L 16.441406 55.597656 Z M 1.136719 20.5625 " clip-rule="nonzero"/></clipPath><clipPath id="d1b08db83c"><rect x="0" width="64" y="0" height="56"/></clipPath><clipPath id="0478d42e53"><path d="M 385 402 L 398 402 L 398 418 L 385 418 Z M 385 402 " clip-rule="nonzero"/></clipPath><clipPath id="f50e97e749"><path d="M 377.488281 396.140625 L 424.765625 415.195312 L 410.757812 449.960938 L 363.476562 430.90625 Z M 377.488281 396.140625 " clip-rule="nonzero"/></clipPath><clipPath id="b999b6b73d"><path d="M 377.488281 396.140625 L 424.765625 415.195312 L 410.757812 449.960938 L 363.476562 430.90625 Z M 377.488281 396.140625 " clip-rule="nonzero"/></clipPath><clipPath id="d5441d1f49"><path d="M 398 408 L 412 408 L 412 423 L 398 423 Z M 398 408 " clip-rule="nonzero"/></clipPath><clipPath id="f577860784"><path d="M 377.488281 396.140625 L 424.765625 415.195312 L 410.757812 449.960938 L 363.476562 430.90625 Z M 377.488281 396.140625 " clip-rule="nonzero"/></clipPath><clipPath id="ff42ad84d7"><path d="M 377.488281 396.140625 L 424.765625 415.195312 L 410.757812 449.960938 L 363.476562 430.90625 Z M 377.488281 396.140625 " clip-rule="nonzero"/></clipPath><clipPath id="54ffbd8478"><path d="M 371 407 L 385 407 L 385 422 L 371 422 Z M 371 407 " clip-rule="nonzero"/></clipPath><clipPath id="fe88b633c2"><path d="M 377.488281 396.140625 L 424.765625 415.195312 L 410.757812 449.960938 L 363.476562 430.90625 Z M 377.488281 396.140625 " clip-rule="nonzero"/></clipPath><clipPath id="14cdfec542"><path d="M 377.488281 396.140625 L 424.765625 415.195312 L 410.757812 449.960938 L 363.476562 430.90625 Z M 377.488281 396.140625 " clip-rule="nonzero"/></clipPath><clipPath id="37547a5ffc"><path d="M 404 421 L 420 421 L 420 436 L 404 436 Z M 404 421 " clip-rule="nonzero"/></clipPath><clipPath id="0c6f20ebd8"><path d="M 377.488281 396.140625 L 424.765625 415.195312 L 410.757812 449.960938 L 363.476562 430.90625 Z M 377.488281 396.140625 " clip-rule="nonzero"/></clipPath><clipPath id="ca6ca8d11a"><path d="M 377.488281 396.140625 L 424.765625 415.195312 L 410.757812 449.960938 L 363.476562 430.90625 Z M 377.488281 396.140625 " clip-rule="nonzero"/></clipPath><clipPath id="59156a9b4b"><path d="M 377 420 L 403 420 L 403 444 L 377 444 Z M 377 420 " clip-rule="nonzero"/></clipPath><clipPath id="5eb64e074b"><path d="M 377.488281 396.140625 L 424.765625 415.195312 L 410.757812 449.960938 L 363.476562 430.90625 Z M 377.488281 396.140625 " clip-rule="nonzero"/></clipPath><clipPath id="63d999b9d9"><path d="M 377.488281 396.140625 L 424.765625 415.195312 L 410.757812 449.960938 L 363.476562 430.90625 Z M 377.488281 396.140625 " clip-rule="nonzero"/></clipPath><clipPath id="c7c73d6000"><path d="M 319 322 L 328 322 L 328 332 L 319 332 Z M 319 322 " clip-rule="nonzero"/></clipPath><clipPath id="e3905a5fd4"><path d="M 312.140625 328.015625 L 339.296875 313.617188 L 349.828125 333.488281 L 322.671875 347.882812 Z M 312.140625 328.015625 " clip-rule="nonzero"/></clipPath><clipPath id="b0f06d25cc"><path d="M 312.140625 328.015625 L 339.296875 313.617188 L 349.828125 333.488281 L 322.671875 347.882812 Z M 312.140625 328.015625 " clip-rule="nonzero"/></clipPath><clipPath id="67b6b01b93"><path d="M 327 318 L 336 318 L 336 328 L 327 328 Z M 327 318 " clip-rule="nonzero"/></clipPath><clipPath id="6c090df8b7"><path d="M 312.140625 328.015625 L 339.296875 313.617188 L 349.828125 333.488281 L 322.671875 347.882812 Z M 312.140625 328.015625 " clip-rule="nonzero"/></clipPath><clipPath id="28cf8e9ed0"><path d="M 312.140625 328.015625 L 339.296875 313.617188 L 349.828125 333.488281 L 322.671875 347.882812 Z M 312.140625 328.015625 " clip-rule="nonzero"/></clipPath><clipPath id="1d3bd0f948"><path d="M 316 331 L 325 331 L 325 339 L 316 339 Z M 316 331 " clip-rule="nonzero"/></clipPath><clipPath id="83aedfb51d"><path d="M 312.140625 328.015625 L 339.296875 313.617188 L 349.828125 333.488281 L 322.671875 347.882812 Z M 312.140625 328.015625 " clip-rule="nonzero"/></clipPath><clipPath id="15b543c332"><path d="M 312.140625 328.015625 L 339.296875 313.617188 L 349.828125 333.488281 L 322.671875 347.882812 Z M 312.140625 328.015625 " clip-rule="nonzero"/></clipPath><clipPath id="6a74383268"><path d="M 336 320 L 345 320 L 345 330 L 336 330 Z M 336 320 " clip-rule="nonzero"/></clipPath><clipPath id="eb0a017fd4"><path d="M 312.140625 328.015625 L 339.296875 313.617188 L 349.828125 333.488281 L 322.671875 347.882812 Z M 312.140625 328.015625 " clip-rule="nonzero"/></clipPath><clipPath id="a5c80c1550"><path d="M 312.140625 328.015625 L 339.296875 313.617188 L 349.828125 333.488281 L 322.671875 347.882812 Z M 312.140625 328.015625 " clip-rule="nonzero"/></clipPath><clipPath id="98c4b5f1c2"><path d="M 326 329 L 342 329 L 342 343 L 326 343 Z M 326 329 " clip-rule="nonzero"/></clipPath><clipPath id="3185909779"><path d="M 312.140625 328.015625 L 339.296875 313.617188 L 349.828125 333.488281 L 322.671875 347.882812 Z M 312.140625 328.015625 " clip-rule="nonzero"/></clipPath><clipPath id="2066f56ef6"><path d="M 312.140625 328.015625 L 339.296875 313.617188 L 349.828125 333.488281 L 322.671875 347.882812 Z M 312.140625 328.015625 " clip-rule="nonzero"/></clipPath><mask id="89102aec65"><g filter="url(#44e2081889)"><rect x="-45" width="540" fill="#000000" y="-51.375001" height="616.500008" fill-opacity="0.3765"/></g></mask><clipPath id="6d3980451f"><path d="M 13 15 L 28 15 L 28 31 L 13 31 Z M 13 15 " clip-rule="nonzero"/></clipPath><clipPath id="a126b7acbb"><path d="M 0.988281 24.828125 L 46.027344 0.953125 L 63.933594 34.730469 L 18.894531 58.605469 Z M 0.988281 24.828125 " clip-rule="nonzero"/></clipPath><clipPath id="38c8b30014"><path d="M 0.988281 24.828125 L 46.027344 0.953125 L 63.933594 34.730469 L 18.894531 58.605469 Z M 0.988281 24.828125 " clip-rule="nonzero"/></clipPath><clipPath id="760cf6bdd3"><path d="M 27 8 L 40 8 L 40 25 L 27 25 Z M 27 8 " clip-rule="nonzero"/></clipPath><clipPath id="da7f8e1889"><path d="M 0.988281 24.828125 L 46.027344 0.953125 L 63.933594 34.730469 L 18.894531 58.605469 Z M 0.988281 24.828125 " clip-rule="nonzero"/></clipPath><clipPath id="7d41ccd7dc"><path d="M 0.988281 24.828125 L 46.027344 0.953125 L 63.933594 34.730469 L 18.894531 58.605469 Z M 0.988281 24.828125 " clip-rule="nonzero"/></clipPath><clipPath id="697644e753"><path d="M 7 30 L 23 30 L 23 44 L 7 44 Z M 7 30 " clip-rule="nonzero"/></clipPath><clipPath id="acb6312220"><path d="M 0.988281 24.828125 L 46.027344 0.953125 L 63.933594 34.730469 L 18.894531 58.605469 Z M 0.988281 24.828125 " clip-rule="nonzero"/></clipPath><clipPath id="d464683652"><path d="M 0.988281 24.828125 L 46.027344 0.953125 L 63.933594 34.730469 L 18.894531 58.605469 Z M 0.988281 24.828125 " clip-rule="nonzero"/></clipPath><clipPath id="a97a17e08b"><path d="M 41 11 L 55 11 L 55 28 L 41 28 Z M 41 11 " clip-rule="nonzero"/></clipPath><clipPath id="b97bc32c67"><path d="M 0.988281 24.828125 L 46.027344 0.953125 L 63.933594 34.730469 L 18.894531 58.605469 Z M 0.988281 24.828125 " clip-rule="nonzero"/></clipPath><clipPath id="e61049d402"><path d="M 0.988281 24.828125 L 46.027344 0.953125 L 63.933594 34.730469 L 18.894531 58.605469 Z M 0.988281 24.828125 " clip-rule="nonzero"/></clipPath><clipPath id="f94564ab31"><path d="M 25 27 L 50 27 L 50 51 L 25 51 Z M 25 27 " clip-rule="nonzero"/></clipPath><clipPath id="3e0aef5c6d"><path d="M 0.988281 24.828125 L 46.027344 0.953125 L 63.933594 34.730469 L 18.894531 58.605469 Z M 0.988281 24.828125 " clip-rule="nonzero"/></clipPath><clipPath id="700065eff3"><path d="M 0.988281 24.828125 L 46.027344 0.953125 L 63.933594 34.730469 L 18.894531 58.605469 Z M 0.988281 24.828125 " clip-rule="nonzero"/></clipPath><clipPath id="cf25eda49d"><rect x="0" width="64" y="0" height="59"/></clipPath></defs><g mask="url(#55addd5154)"><g transform="matrix(1, 0, 0, 1, 367, 236)"><g clip-path="url(#297d2307a4)"><g clip-path="url(#66256a4819)"><g clip-path="url(#02b491947c)"><g clip-path="url(#471bc6e59e)"><path fill="#295d09" d="M 26.554688 5.960938 C 34.945312 7.523438 30.804688 22.054688 23.5 19.226562 C 17.628906 16.949219 19.257812 4.601562 26.554688 5.960938 " fill-opacity="1" fill-rule="evenodd"/></g></g></g><g clip-path="url(#5ed8519c25)"><g clip-path="url(#75238e7637)"><g clip-path="url(#ce28a7b131)"><path fill="#295d09" d="M 39.441406 10.273438 C 48.917969 11.308594 42.652344 26.601562 34.726562 22.980469 C 28.457031 20.117188 33.378906 9.613281 39.441406 10.273438 " fill-opacity="1" fill-rule="evenodd"/></g></g></g><g clip-path="url(#187f443cfd)"><g clip-path="url(#8f425b7069)"><g clip-path="url(#d4a3622ecd)"><path fill="#295d09" d="M 17.886719 22.1875 C 12.460938 27.96875 4.507812 19.9375 7.84375 13.523438 C 11.355469 6.765625 22.9375 14.6875 17.886719 22.1875 " fill-opacity="1" fill-rule="evenodd"/></g></g></g><g clip-path="url(#d7a71b7641)"><g clip-path="url(#a5485c01bf)"><g clip-path="url(#86768a223c)"><path fill="#295d09" d="M 46.714844 22.386719 C 48.914062 22.679688 51.25 24.273438 51.632812 26.335938 C 52.6875 32.023438 45.824219 36.246094 41.167969 34.121094 C 38.609375 32.957031 37.832031 30.199219 38.328125 28.105469 C 39.390625 23.621094 43.414062 21.945312 46.714844 22.386719 " fill-opacity="1" fill-rule="evenodd"/></g></g></g><g clip-path="url(#8d535e12ea)"><g clip-path="url(#eff2f5a70d)"><g clip-path="url(#62fb8c85a5)"><path fill="#295d09" d="M 26.6875 22.824219 C 34.390625 24.011719 39.324219 31.480469 34.863281 39.847656 C 33.9375 41.578125 31.484375 43.644531 29.175781 43.011719 C 27.316406 42.507812 25.773438 40.019531 23.496094 39.269531 C 20.667969 38.339844 17.609375 40.089844 15.390625 37.9375 C 13.523438 36.132812 14.066406 31.53125 15.53125 28.539062 C 17.636719 24.226562 22.046875 22.109375 26.6875 22.824219 " fill-opacity="1" fill-rule="evenodd"/></g></g></g></g></g></g><g mask="url(#869b6d345f)"><g transform="matrix(1, 0, 0, 1, 20, 412)"><g clip-path="url(#d1b08db83c)"><g clip-path="url(#eee0381e28)"><g clip-path="url(#96114f01d7)"><g clip-path="url(#990ce65e4e)"><path fill="#295d09" d="M 16.726562 13.964844 C 24.703125 9.054688 32.085938 24.085938 24.0625 27.152344 C 17.609375 29.613281 9.796875 18.238281 16.726562 13.964844 " fill-opacity="1" fill-rule="evenodd"/></g></g></g><g clip-path="url(#3a4be63de0)"><g clip-path="url(#59ea5b7005)"><g clip-path="url(#14f12bb971)"><path fill="#295d09" d="M 30.386719 8 C 38.851562 1.851562 45.074219 19.082031 35.960938 21.953125 C 28.746094 24.226562 24.972656 11.933594 30.386719 8 " fill-opacity="1" fill-rule="evenodd"/></g></g></g><g clip-path="url(#1ccf550077)"><g clip-path="url(#112fd9f7a9)"><g clip-path="url(#6808b46051)"><path fill="#295d09" d="M 21.691406 33.738281 C 21.558594 42.511719 9.15625 41.769531 7.121094 34.019531 C 4.976562 25.859375 20.246094 23.828125 21.691406 33.738281 " fill-opacity="1" fill-rule="evenodd"/></g></g></g><g clip-path="url(#c41c794091)"><g clip-path="url(#90e9cab109)"><g clip-path="url(#77603aa1f3)"><path fill="#295d09" d="M 45.257812 12.605469 C 47.261719 11.222656 50.339844 10.808594 52.175781 12.226562 C 57.238281 16.132812 54.789062 24.683594 49.433594 26.375 C 46.496094 27.304688 43.820312 25.605469 42.675781 23.515625 C 40.222656 19.03125 42.253906 14.679688 45.257812 12.605469 " fill-opacity="1" fill-rule="evenodd"/></g></g></g><g clip-path="url(#74b1a726ed)"><g clip-path="url(#4e94a326a2)"><g clip-path="url(#e2effa5bb3)"><path fill="#295d09" d="M 29.3125 27.765625 C 36.449219 23.050781 45.984375 25.558594 48.546875 35.75 C 49.078125 37.859375 48.609375 41.375 46.269531 42.558594 C 44.386719 43.515625 41.292969 42.605469 38.886719 43.667969 C 35.902344 44.992188 34.710938 48.695312 31.316406 48.5625 C 28.464844 48.453125 25.5 44.257812 24.476562 40.714844 C 23 35.605469 25.015625 30.605469 29.3125 27.765625 " fill-opacity="1" fill-rule="evenodd"/></g></g></g></g></g></g><g clip-path="url(#0478d42e53)"><g clip-path="url(#f50e97e749)"><g clip-path="url(#b999b6b73d)"><path fill="#295d09" d="M 393.117188 402.640625 C 402.199219 404.917969 396.761719 420.414062 388.949219 416.839844 C 382.667969 413.964844 385.222656 400.664062 393.117188 402.640625 " fill-opacity="1" fill-rule="evenodd"/></g></g></g><g clip-path="url(#d5441d1f49)"><g clip-path="url(#f577860784)"><g clip-path="url(#ff42ad84d7)"><path fill="#295d09" d="M 406.941406 408.214844 C 417.242188 409.992188 409.433594 426.167969 400.992188 421.691406 C 394.3125 418.148438 400.351562 407.078125 406.941406 408.214844 " fill-opacity="1" fill-rule="evenodd"/></g></g></g><g clip-path="url(#54ffbd8478)"><g clip-path="url(#fe88b633c2)"><g clip-path="url(#14cdfec542)"><path fill="#295d09" d="M 382.625 419.667969 C 376.328125 425.574219 368.128906 416.304688 372.179688 409.566406 C 376.445312 402.472656 388.617188 411.871094 382.625 419.667969 " fill-opacity="1" fill-rule="evenodd"/></g></g></g><g clip-path="url(#37547a5ffc)"><g clip-path="url(#0c6f20ebd8)"><g clip-path="url(#ca6ca8d11a)"><path fill="#295d09" d="M 414.140625 421.871094 C 416.53125 422.339844 418.988281 424.234375 419.277344 426.5 C 420.074219 432.75 412.304688 436.863281 407.34375 434.238281 C 404.617188 432.796875 403.941406 429.742188 404.613281 427.503906 C 406.054688 422.707031 410.5625 421.167969 414.140625 421.871094 " fill-opacity="1" fill-rule="evenodd"/></g></g></g><g clip-path="url(#59156a9b4b)"><g clip-path="url(#5eb64e074b)"><g clip-path="url(#63d999b9d9)"><path fill="#295d09" d="M 392.210938 420.96875 C 400.5625 422.789062 405.492188 431.242188 400.089844 440.019531 C 398.96875 441.839844 396.15625 443.910156 393.675781 443.066406 C 391.671875 442.390625 390.136719 439.582031 387.695312 438.609375 C 384.660156 437.40625 381.203125 439.09375 378.910156 436.605469 C 376.984375 434.515625 377.863281 429.554688 379.652344 426.40625 C 382.222656 421.867188 387.179688 419.875 392.210938 420.96875 " fill-opacity="1" fill-rule="evenodd"/></g></g></g><g clip-path="url(#c7c73d6000)"><g clip-path="url(#e3905a5fd4)"><g clip-path="url(#b0f06d25cc)"><path fill="#295d09" d="M 321.210938 323.335938 C 325.792969 320.035156 330.800781 328.519531 326.117188 330.734375 C 322.351562 332.511719 317.230469 326.203125 321.210938 323.335938 " fill-opacity="1" fill-rule="evenodd"/></g></g></g><g clip-path="url(#67b6b01b93)"><g clip-path="url(#6c090df8b7)"><g clip-path="url(#28cf8e9ed0)"><path fill="#295d09" d="M 329.152344 319.125 C 333.976562 315.074219 338.375 324.910156 333.035156 327.066406 C 328.804688 328.773438 326.066406 321.71875 329.152344 319.125 " fill-opacity="1" fill-rule="evenodd"/></g></g></g><g clip-path="url(#1d3bd0f948)"><g clip-path="url(#83aedfb51d)"><g clip-path="url(#15b543c332)"><path fill="#295d09" d="M 324.957031 334.734375 C 325.222656 339.910156 317.769531 340.105469 316.25 335.640625 C 314.644531 330.941406 323.703125 328.96875 324.957031 334.734375 " fill-opacity="1" fill-rule="evenodd"/></g></g></g><g clip-path="url(#6a74383268)"><g clip-path="url(#eb0a017fd4)"><g clip-path="url(#a5c80c1550)"><path fill="#295d09" d="M 338.230469 321.085938 C 339.375 320.167969 341.203125 319.769531 342.359375 320.511719 C 345.539062 322.558594 344.410156 327.71875 341.273438 328.988281 C 339.550781 329.683594 337.882812 328.820312 337.113281 327.644531 C 335.46875 325.128906 336.515625 322.460938 338.230469 321.085938 " fill-opacity="1" fill-rule="evenodd"/></g></g></g><g clip-path="url(#98c4b5f1c2)"><g clip-path="url(#3185909779)"><g clip-path="url(#2066f56ef6)"><path fill="#295d09" d="M 329.285156 330.828125 C 333.371094 327.6875 339.175781 328.683594 341.105469 334.558594 C 341.507812 335.773438 341.367188 337.867188 340.011719 338.683594 C 338.921875 339.34375 337.035156 338.964844 335.636719 339.714844 C 333.902344 340.644531 333.335938 342.890625 331.296875 342.984375 C 329.589844 343.0625 327.648438 340.742188 326.898438 338.707031 C 325.8125 335.769531 326.824219 332.71875 329.285156 330.828125 " fill-opacity="1" fill-rule="evenodd"/></g></g></g><g mask="url(#89102aec65)"><g transform="matrix(1, 0, 0, 1, 330, 126)"><g clip-path="url(#cf25eda49d)"><g clip-path="url(#6d3980451f)"><g clip-path="url(#a126b7acbb)"><g clip-path="url(#38c8b30014)"><path fill="#295d09" d="M 16.035156 17.070312 C 23.617188 11.570312 32.117188 26.003906 24.34375 29.664062 C 18.09375 32.609375 9.445312 21.851562 16.035156 17.070312 " fill-opacity="1" fill-rule="evenodd"/></g></g></g><g clip-path="url(#760cf6bdd3)"><g clip-path="url(#da7f8e1889)"><g clip-path="url(#7d41ccd7dc)"><path fill="#295d09" d="M 29.207031 10.089844 C 37.179688 3.320312 44.6875 20.03125 35.816406 23.582031 C 28.792969 26.394531 24.101562 14.421875 29.207031 10.089844 " fill-opacity="1" fill-rule="evenodd"/></g></g></g><g clip-path="url(#697644e753)"><g clip-path="url(#acb6312220)"><g clip-path="url(#d464683652)"><path fill="#295d09" d="M 22.476562 36.410156 C 23.007812 45.171875 10.585938 45.371094 7.972656 37.796875 C 5.21875 29.816406 20.289062 26.640625 22.476562 36.410156 " fill-opacity="1" fill-rule="evenodd"/></g></g></g><g clip-path="url(#a97a17e08b)"><g clip-path="url(#b97bc32c67)"><g clip-path="url(#e61049d402)"><path fill="#295d09" d="M 44.382812 13.558594 C 46.273438 12.03125 49.3125 11.386719 51.25 12.660156 C 56.59375 16.171875 54.796875 24.882812 49.585938 26.976562 C 46.726562 28.125 43.929688 26.628906 42.628906 24.632812 C 39.84375 20.351562 41.539062 15.855469 44.382812 13.558594 " fill-opacity="1" fill-rule="evenodd"/></g></g></g><g clip-path="url(#f94564ab31)"><g clip-path="url(#3e0aef5c6d)"><g clip-path="url(#700065eff3)"><path fill="#295d09" d="M 29.625 29.878906 C 36.386719 24.640625 46.082031 26.421875 49.40625 36.390625 C 50.097656 38.453125 49.898438 41.992188 47.652344 43.351562 C 45.84375 44.449219 42.691406 43.773438 40.375 45.015625 C 37.496094 46.5625 36.589844 50.34375 33.195312 50.46875 C 30.34375 50.574219 27.070312 46.617188 25.78125 43.160156 C 23.921875 38.175781 25.554688 33.035156 29.625 29.878906 " fill-opacity="1" fill-rule="evenodd"/></g></g></g></g></g></g></svg>