<svg xmlns="http://www.w3.org/2000/svg" xmlns:xlink="http://www.w3.org/1999/xlink" width="1587" zoomAndPan="magnify" viewBox="0 0 1190.25 1683.749945" height="2245" preserveAspectRatio="xMidYMid meet" version="1.0"><defs><clipPath id="4919cad8f5"><path d="M 0 0.40625 L 1189.5 0.40625 L 1189.5 1683.09375 L 0 1683.09375 Z M 0 0.40625 " clip-rule="nonzero"/></clipPath><clipPath id="acb68b9a09"><path d="M 1039 190 L 1189.5 190 L 1189.5 418 L 1039 418 Z M 1039 190 " clip-rule="nonzero"/></clipPath><clipPath id="99c84f06ff"><path d="M 1086.875 165.875 L 1264.230469 233.21875 L 1183.578125 445.625 L 1006.222656 378.28125 Z M 1086.875 165.875 " clip-rule="nonzero"/></clipPath><clipPath id="4cf9abd8a6"><path d="M 1087.058594 165.398438 L 1264.414062 232.738281 L 1183.496094 445.847656 L 1006.140625 378.503906 Z M 1087.058594 165.398438 " clip-rule="nonzero"/></clipPath><clipPath id="9d8b5f4d91"><path d="M 17 40 L 162 40 L 162 196 L 17 196 Z M 17 40 " clip-rule="nonzero"/></clipPath><clipPath id="bf3bc29465"><path d="M 8.503906 66.746094 L 131.4375 23.042969 L 183.679688 170.003906 L 60.742188 213.703125 Z M 8.503906 66.746094 " clip-rule="nonzero"/></clipPath><clipPath id="ae6d4e333b"><path d="M 8.386719 66.414062 L 131.320312 22.714844 L 183.8125 170.378906 L 60.875 214.078125 Z M 8.386719 66.414062 " clip-rule="nonzero"/></clipPath><clipPath id="593a2b66a0"><path d="M 0 579 L 98 579 L 98 707 L 0 707 Z M 0 579 " clip-rule="nonzero"/></clipPath><clipPath id="443c7979cd"><path d="M -2.316406 570.917969 L 101.726562 589.722656 L 79.183594 714.425781 L -24.855469 695.621094 Z M -2.316406 570.917969 " clip-rule="nonzero"/></clipPath><clipPath id="382dc28ab9"><path d="M -2.265625 570.636719 L 101.777344 589.441406 L 79.101562 714.882812 L -24.9375 696.074219 Z M -2.265625 570.636719 " clip-rule="nonzero"/></clipPath><clipPath id="bbe125bd53"><path d="M 8 1511 L 214 1511 L 214 1683.09375 L 8 1683.09375 Z M 8 1511 " clip-rule="nonzero"/></clipPath><clipPath id="b55b644f1e"><path d="M 51.132812 1486.632812 L 226.621094 1548.160156 L 152.9375 1758.320312 L -22.550781 1696.796875 Z M 51.132812 1486.632812 " clip-rule="nonzero"/></clipPath><clipPath id="d07e6d4aef"><path d="M 51.296875 1486.160156 L 226.785156 1547.6875 L 152.609375 1759.261719 L -22.878906 1697.738281 Z M 51.296875 1486.160156 " clip-rule="nonzero"/></clipPath><clipPath id="926e6b947a"><path d="M 944 1541 L 1087 1541 L 1087 1683.09375 L 944 1683.09375 Z M 944 1541 " clip-rule="nonzero"/></clipPath><clipPath id="5cd73cc16b"><path d="M 939.414062 1553.796875 L 1074.464844 1529.503906 L 1103.539062 1691.125 L 968.484375 1715.417969 Z M 939.414062 1553.796875 " clip-rule="nonzero"/></clipPath><clipPath id="3a97ca8271"><path d="M 939.347656 1553.433594 L 1074.398438 1529.140625 L 1103.605469 1691.5 L 968.554688 1715.792969 Z M 939.347656 1553.433594 " clip-rule="nonzero"/></clipPath><clipPath id="127d2e3e1e"><path d="M 1061 924 L 1189.5 924 L 1189.5 1080 L 1061 1080 Z M 1061 924 " clip-rule="nonzero"/></clipPath><clipPath id="0167640936"><path d="M 1055.992188 937.191406 L 1184.796875 912.113281 L 1214.746094 1065.945312 L 1085.941406 1091.019531 Z M 1055.992188 937.191406 " clip-rule="nonzero"/></clipPath><clipPath id="74afa97555"><path d="M 1055.925781 936.84375 L 1184.730469 911.769531 L 1214.820312 1066.332031 L 1086.015625 1091.410156 Z M 1055.925781 936.84375 " clip-rule="nonzero"/></clipPath><clipPath id="7d1c921bb5"><path d="M 214 936 L 420 936 L 420 1159 L 214 1159 Z M 214 936 " clip-rule="nonzero"/></clipPath><clipPath id="9e50b3ff35"><path d="M 257.066406 912.167969 L 432.554688 973.695312 L 358.875 1183.855469 L 183.386719 1122.332031 Z M 257.066406 912.167969 " clip-rule="nonzero"/></clipPath><clipPath id="a09f71b9f7"><path d="M 257.230469 911.695312 L 432.71875 973.222656 L 358.542969 1184.796875 L 183.054688 1123.273438 Z M 257.230469 911.695312 " clip-rule="nonzero"/></clipPath><clipPath id="fe0d45e953"><path d="M 648 0.40625 L 786 0.40625 L 786 155 L 648 155 Z M 648 0.40625 " clip-rule="nonzero"/></clipPath><clipPath id="3aa1c6e015"><path d="M 643.339844 11.9375 L 772.144531 -13.136719 L 802.09375 140.691406 L 673.289062 165.769531 Z M 643.339844 11.9375 " clip-rule="nonzero"/></clipPath><clipPath id="b7ac012912"><path d="M 643.273438 11.59375 L 772.078125 -13.484375 L 802.167969 141.082031 L 673.363281 166.15625 Z M 643.273438 11.59375 " clip-rule="nonzero"/></clipPath><clipPath id="db5bf2b9b9"><path d="M 735 1238 L 846 1238 L 846 1366 L 735 1366 Z M 735 1238 " clip-rule="nonzero"/></clipPath><clipPath id="eda22e275a"><path d="M 745.1875 1230 L 849.230469 1248.808594 L 826.6875 1373.507812 L 722.644531 1354.703125 Z M 745.1875 1230 " clip-rule="nonzero"/></clipPath><clipPath id="c3eed9e0bd"><path d="M 745.238281 1229.71875 L 849.28125 1248.527344 L 826.605469 1373.964844 L 722.5625 1355.160156 Z M 745.238281 1229.71875 " clip-rule="nonzero"/></clipPath><clipPath id="f2981b4f9d"><path d="M 503 435 L 614 435 L 614 563 L 503 563 Z M 503 435 " clip-rule="nonzero"/></clipPath><clipPath id="7c510fa813"><path d="M 513.242188 427.042969 L 617.28125 445.847656 L 594.742188 570.550781 L 490.699219 551.742188 Z M 513.242188 427.042969 " clip-rule="nonzero"/></clipPath><clipPath id="f2c2ab3a97"><path d="M 513.292969 426.761719 L 617.332031 445.566406 L 594.660156 571.007812 L 490.617188 552.199219 Z M 513.292969 426.761719 " clip-rule="nonzero"/></clipPath></defs><g clip-path="url(#4919cad8f5)"><path fill="#ffffff" d="M 0 0.40625 L 1192.25 0.40625 L 1192.25 1694.296875 L 0 1694.296875 Z M 0 0.40625 " fill-opacity="1" fill-rule="nonzero"/><path fill="#ffffff" d="M 0 0.40625 L 1190 0.40625 L 1190 1683.800781 L 0 1683.800781 Z M 0 0.40625 " fill-opacity="1" fill-rule="nonzero"/><path fill="#ffffff" d="M 0 0.40625 L 1190 0.40625 L 1190 1683.800781 L 0 1683.800781 Z M 0 0.40625 " fill-opacity="1" fill-rule="nonzero"/></g><g clip-path="url(#acb68b9a09)"><g clip-path="url(#99c84f06ff)"><g clip-path="url(#4cf9abd8a6)"><path fill="#69ab3d" d="M 1205.019531 362.621094 C 1188.28125 406.703125 1138.933594 428.855469 1094.800781 412.097656 C 1050.667969 395.339844 1028.457031 346.019531 1045.195312 301.9375 C 1061.933594 257.855469 1111.28125 235.703125 1155.414062 252.460938 C 1199.546875 269.21875 1221.757812 318.539062 1205.019531 362.621094 Z M 1175.710938 199.132812 C 1162.875 194.257812 1148.523438 200.699219 1143.65625 213.519531 C 1138.789062 226.339844 1145.25 240.683594 1158.082031 245.554688 C 1170.917969 250.429688 1185.269531 243.988281 1190.136719 231.167969 C 1195.003906 218.347656 1188.546875 204.003906 1175.710938 199.132812 Z M 1234.191406 242.304688 C 1221.355469 237.429688 1207.003906 243.871094 1202.136719 256.691406 C 1197.269531 269.511719 1203.726562 283.855469 1216.5625 288.726562 C 1229.398438 293.601562 1243.75 287.160156 1248.617188 274.339844 C 1253.484375 261.519531 1247.023438 247.175781 1234.191406 242.304688 Z M 1103.316406 192.609375 C 1090.480469 187.738281 1076.128906 194.179688 1071.261719 206.996094 C 1066.394531 219.816406 1072.851562 234.160156 1085.6875 239.035156 C 1098.523438 243.90625 1112.871094 237.464844 1117.742188 224.644531 C 1122.609375 211.828125 1116.148438 197.484375 1103.316406 192.609375 Z M 1103.316406 192.609375 " fill-opacity="1" fill-rule="nonzero"/></g></g></g><g clip-path="url(#9d8b5f4d91)"><g clip-path="url(#bf3bc29465)"><g clip-path="url(#ae6d4e333b)"><path fill="#69ab3d" d="M 158.03125 117.199219 C 168.890625 147.742188 152.894531 181.320312 122.300781 192.195312 C 91.707031 203.070312 58.105469 187.125 47.25 156.578125 C 36.390625 126.035156 52.386719 92.457031 82.980469 81.582031 C 113.574219 70.707031 147.175781 86.652344 158.03125 117.199219 Z M 69.867188 44.609375 C 60.972656 47.769531 56.320312 57.535156 59.476562 66.417969 C 62.636719 75.300781 72.40625 79.9375 81.304688 76.777344 C 90.199219 73.613281 94.851562 63.847656 91.695312 54.964844 C 88.539062 46.082031 78.765625 41.445312 69.867188 44.609375 Z M 119.742188 41.183594 C 110.84375 44.34375 106.191406 54.109375 109.351562 62.992188 C 112.507812 71.875 122.28125 76.511719 131.175781 73.351562 C 140.074219 70.1875 144.726562 60.421875 141.570312 51.539062 C 138.410156 42.65625 128.640625 38.019531 119.742188 41.183594 Z M 29.023438 73.429688 C 20.125 76.59375 15.472656 86.355469 18.632812 95.238281 C 21.789062 104.121094 31.5625 108.761719 40.457031 105.597656 C 49.355469 102.433594 54.007812 92.671875 50.851562 83.789062 C 47.691406 74.90625 37.921875 70.265625 29.023438 73.429688 Z M 29.023438 73.429688 " fill-opacity="1" fill-rule="nonzero"/></g></g></g><g clip-path="url(#593a2b66a0)"><g clip-path="url(#443c7979cd)"><g clip-path="url(#382dc28ab9)"><path fill="#69ab3d" d="M 82.433594 666.929688 C 77.746094 692.875 52.953125 710.117188 27.066406 705.4375 C 1.175781 700.757812 -16.011719 675.929688 -11.320312 649.980469 C -6.632812 624.035156 18.160156 606.792969 44.050781 611.472656 C 69.941406 616.152344 87.125 640.980469 82.433594 666.929688 Z M 49.75 580.078125 C 42.21875 578.714844 35.011719 583.730469 33.644531 591.277344 C 32.28125 598.820312 37.28125 606.042969 44.808594 607.402344 C 52.339844 608.765625 59.546875 603.75 60.914062 596.203125 C 62.277344 588.660156 57.277344 581.4375 49.75 580.078125 Z M 86.1875 597.800781 C 78.65625 596.441406 71.449219 601.457031 70.085938 609 C 68.71875 616.546875 73.71875 623.765625 81.246094 625.128906 C 88.777344 626.488281 95.984375 621.476562 97.351562 613.929688 C 98.714844 606.382812 93.714844 599.164062 86.1875 597.800781 Z M 9.410156 583.925781 C 1.882812 582.5625 -5.328125 587.578125 -6.691406 595.125 C -8.054688 602.667969 -3.058594 609.890625 4.472656 611.25 C 12 612.613281 19.210938 607.597656 20.574219 600.050781 C 21.9375 592.507812 16.941406 585.285156 9.410156 583.925781 Z M 9.410156 583.925781 " fill-opacity="1" fill-rule="nonzero"/></g></g></g><g clip-path="url(#bbe125bd53)"><g clip-path="url(#b55b644f1e)"><g clip-path="url(#d07e6d4aef)"><path fill="#69ab3d" d="M 171.699219 1676.902344 C 156.355469 1720.664062 108.515625 1743.734375 64.847656 1728.421875 C 21.175781 1713.113281 -1.785156 1665.222656 13.558594 1621.457031 C 28.902344 1577.691406 76.742188 1554.625 120.410156 1569.933594 C 164.082031 1585.246094 187.042969 1633.136719 171.699219 1676.902344 Z M 139.019531 1516.984375 C 126.320312 1512.535156 112.40625 1519.242188 107.945312 1531.96875 C 103.480469 1544.695312 110.160156 1558.625 122.859375 1563.078125 C 135.558594 1567.527344 149.472656 1560.820312 153.933594 1548.09375 C 158.398438 1535.367188 151.71875 1521.4375 139.019531 1516.984375 Z M 197.390625 1557.878906 C 184.691406 1553.425781 170.777344 1560.136719 166.316406 1572.863281 C 161.851562 1585.589844 168.53125 1599.519531 181.230469 1603.972656 C 193.929688 1608.421875 207.84375 1601.714844 212.304688 1588.988281 C 216.765625 1576.257812 210.089844 1562.332031 197.390625 1557.878906 Z M 67.890625 1512.480469 C 55.191406 1508.027344 41.277344 1514.734375 36.816406 1527.464844 C 32.355469 1540.191406 39.03125 1554.117188 51.730469 1558.570312 C 64.433594 1563.023438 78.34375 1556.3125 82.808594 1543.585938 C 87.269531 1530.859375 80.589844 1516.933594 67.890625 1512.480469 Z M 67.890625 1512.480469 " fill-opacity="1" fill-rule="nonzero"/></g></g></g><g clip-path="url(#926e6b947a)"><g clip-path="url(#5cd73cc16b)"><g clip-path="url(#3a97ca8271)"><path fill="#69ab3d" d="M 1085.953125 1631.847656 C 1091.996094 1665.429688 1069.648438 1697.558594 1036.039062 1703.601562 C 1002.433594 1709.648438 970.289062 1687.324219 964.25 1653.738281 C 958.207031 1620.15625 980.554688 1588.03125 1014.164062 1581.984375 C 1047.769531 1575.9375 1079.910156 1598.261719 1085.953125 1631.847656 Z M 1006.882812 1541.335938 C 997.109375 1543.09375 990.609375 1552.4375 992.367188 1562.203125 C 994.125 1571.96875 1003.472656 1578.460938 1013.246094 1576.703125 C 1023.019531 1574.945312 1029.515625 1565.601562 1027.761719 1555.835938 C 1026.003906 1546.070312 1016.65625 1539.578125 1006.882812 1541.335938 Z M 1059.222656 1546.332031 C 1049.449219 1548.089844 1042.953125 1557.433594 1044.707031 1567.199219 C 1046.464844 1576.96875 1055.8125 1583.460938 1065.585938 1581.703125 C 1075.359375 1579.945312 1081.859375 1570.601562 1080.101562 1560.832031 C 1078.34375 1551.066406 1068.996094 1544.574219 1059.222656 1546.332031 Z M 959.5625 1564.261719 C 949.789062 1566.019531 943.292969 1575.363281 945.046875 1585.128906 C 946.804688 1594.894531 956.152344 1601.386719 965.925781 1599.628906 C 975.699219 1597.871094 982.199219 1588.527344 980.441406 1578.761719 C 978.683594 1568.996094 969.335938 1562.503906 959.5625 1564.261719 Z M 959.5625 1564.261719 " fill-opacity="1" fill-rule="nonzero"/></g></g></g><g clip-path="url(#127d2e3e1e)"><g clip-path="url(#0167640936)"><g clip-path="url(#74afa97555)"><path fill="#69ab3d" d="M 1197.144531 1009.640625 C 1203.371094 1041.613281 1182.433594 1072.589844 1150.378906 1078.832031 C 1118.328125 1085.070312 1087.296875 1064.210938 1081.074219 1032.238281 C 1074.847656 1000.265625 1095.785156 969.289062 1127.839844 963.050781 C 1159.890625 956.808594 1190.921875 977.671875 1197.144531 1009.640625 Z M 1120.335938 924.351562 C 1111.015625 926.167969 1104.925781 935.175781 1106.738281 944.472656 C 1108.546875 953.773438 1117.570312 959.839844 1126.890625 958.023438 C 1136.214844 956.210938 1142.300781 947.199219 1140.492188 937.902344 C 1138.683594 928.605469 1129.65625 922.539062 1120.335938 924.351562 Z M 1170.449219 928.390625 C 1161.128906 930.207031 1155.039062 939.214844 1156.847656 948.511719 C 1158.660156 957.8125 1167.683594 963.878906 1177.003906 962.0625 C 1186.324219 960.246094 1192.414062 951.238281 1190.605469 941.941406 C 1188.792969 932.644531 1179.769531 926.578125 1170.449219 928.390625 Z M 1075.398438 946.894531 C 1066.078125 948.710938 1059.988281 957.71875 1061.800781 967.015625 C 1063.609375 976.316406 1072.632812 982.382812 1081.953125 980.566406 C 1091.277344 978.753906 1097.367188 969.742188 1095.554688 960.445312 C 1093.746094 951.148438 1084.722656 945.082031 1075.398438 946.894531 Z M 1075.398438 946.894531 " fill-opacity="1" fill-rule="nonzero"/></g></g></g><g clip-path="url(#7d1c921bb5)"><g clip-path="url(#9e50b3ff35)"><g clip-path="url(#a09f71b9f7)"><path fill="#69ab3d" d="M 377.632812 1102.4375 C 362.289062 1146.199219 314.449219 1169.269531 270.78125 1153.957031 C 227.109375 1138.648438 204.148438 1090.757812 219.492188 1046.992188 C 234.835938 1003.226562 282.675781 980.160156 326.34375 995.46875 C 370.015625 1010.78125 392.976562 1058.671875 377.632812 1102.4375 Z M 344.953125 942.519531 C 332.253906 938.070312 318.339844 944.777344 313.878906 957.503906 C 309.417969 970.230469 316.09375 984.160156 328.796875 988.613281 C 341.496094 993.0625 355.40625 986.355469 359.871094 973.628906 C 364.332031 960.902344 357.652344 946.972656 344.953125 942.519531 Z M 403.324219 983.414062 C 390.625 978.960938 376.710938 985.671875 372.25 998.398438 C 367.789062 1011.125 374.464844 1025.054688 387.164062 1029.507812 C 399.867188 1033.957031 413.777344 1027.25 418.242188 1014.523438 C 422.703125 1001.792969 416.023438 987.867188 403.324219 983.414062 Z M 273.828125 938.015625 C 261.125 933.5625 247.214844 940.269531 242.753906 952.996094 C 238.289062 965.726562 244.96875 979.652344 257.667969 984.105469 C 270.367188 988.558594 284.28125 981.847656 288.742188 969.121094 C 293.203125 956.394531 286.527344 942.46875 273.828125 938.015625 Z M 273.828125 938.015625 " fill-opacity="1" fill-rule="nonzero"/></g></g></g><g clip-path="url(#fe0d45e953)"><g clip-path="url(#3aa1c6e015)"><g clip-path="url(#b7ac012912)"><path fill="#69ab3d" d="M 784.492188 84.390625 C 790.71875 116.363281 769.78125 147.339844 737.726562 153.578125 C 705.675781 159.820312 674.644531 138.960938 668.421875 106.988281 C 662.195312 75.015625 683.132812 44.039062 715.1875 37.800781 C 747.238281 31.558594 778.269531 52.417969 784.492188 84.390625 Z M 707.683594 -0.898438 C 698.363281 0.917969 692.273438 9.925781 694.082031 19.222656 C 695.894531 28.519531 704.917969 34.585938 714.238281 32.773438 C 723.558594 30.957031 729.648438 21.949219 727.839844 12.652344 C 726.027344 3.351562 717.003906 -2.714844 707.683594 -0.898438 Z M 757.796875 3.140625 C 748.472656 4.957031 742.386719 13.964844 744.195312 23.261719 C 746.003906 32.558594 755.03125 38.625 764.351562 36.8125 C 773.671875 34.996094 779.761719 25.988281 777.949219 16.691406 C 776.140625 7.390625 767.117188 1.324219 757.796875 3.140625 Z M 662.746094 21.644531 C 653.425781 23.460938 647.335938 32.46875 649.148438 41.765625 C 650.957031 51.0625 659.980469 57.128906 669.300781 55.316406 C 678.625 53.5 684.710938 44.492188 682.902344 35.195312 C 681.09375 25.898438 672.070312 19.832031 662.746094 21.644531 Z M 662.746094 21.644531 " fill-opacity="1" fill-rule="nonzero"/></g></g></g><g clip-path="url(#db5bf2b9b9)"><g clip-path="url(#eda22e275a)"><g clip-path="url(#c3eed9e0bd)"><path fill="#69ab3d" d="M 829.9375 1326.011719 C 825.25 1351.960938 800.457031 1369.199219 774.566406 1364.519531 C 748.675781 1359.839844 731.492188 1335.011719 736.179688 1309.066406 C 740.871094 1283.117188 765.660156 1265.875 791.550781 1270.558594 C 817.441406 1275.238281 834.628906 1300.066406 829.9375 1326.011719 Z M 797.25 1239.160156 C 789.722656 1237.800781 782.511719 1242.8125 781.148438 1250.359375 C 779.785156 1257.90625 784.78125 1265.125 792.3125 1266.488281 C 799.839844 1267.847656 807.050781 1262.832031 808.414062 1255.289062 C 809.777344 1247.742188 804.78125 1240.519531 797.25 1239.160156 Z M 833.691406 1256.886719 C 826.160156 1255.523438 818.949219 1260.539062 817.585938 1268.085938 C 816.222656 1275.628906 821.222656 1282.851562 828.75 1284.210938 C 836.28125 1285.574219 843.488281 1280.558594 844.851562 1273.011719 C 846.21875 1265.46875 841.21875 1258.246094 833.691406 1256.886719 Z M 756.914062 1243.007812 C 749.386719 1241.648438 742.175781 1246.660156 740.8125 1254.207031 C 739.449219 1261.753906 744.445312 1268.972656 751.976562 1270.335938 C 759.503906 1271.695312 766.714844 1266.679688 768.078125 1259.136719 C 769.441406 1251.589844 764.445312 1244.367188 756.914062 1243.007812 Z M 756.914062 1243.007812 " fill-opacity="1" fill-rule="nonzero"/></g></g></g><g clip-path="url(#f2981b4f9d)"><g clip-path="url(#7c510fa813)"><g clip-path="url(#f2c2ab3a97)"><path fill="#69ab3d" d="M 597.992188 523.054688 C 593.300781 549 568.511719 566.242188 542.621094 561.5625 C 516.730469 556.882812 499.546875 532.054688 504.234375 506.105469 C 508.925781 480.160156 533.714844 462.917969 559.605469 467.597656 C 585.496094 472.277344 602.683594 497.105469 597.992188 523.054688 Z M 565.304688 436.199219 C 557.777344 434.839844 550.566406 439.855469 549.203125 447.398438 C 547.839844 454.945312 552.835938 462.167969 560.367188 463.527344 C 567.894531 464.886719 575.105469 459.875 576.46875 452.328125 C 577.832031 444.78125 572.835938 437.5625 565.304688 436.199219 Z M 601.742188 453.925781 C 594.214844 452.566406 587.003906 457.578125 585.640625 465.125 C 584.277344 472.671875 589.273438 479.890625 596.804688 481.253906 C 604.332031 482.613281 611.542969 477.597656 612.90625 470.054688 C 614.269531 462.507812 609.273438 455.289062 601.742188 453.925781 Z M 524.96875 440.046875 C 517.4375 438.6875 510.230469 443.703125 508.867188 451.246094 C 507.5 458.792969 512.5 466.015625 520.027344 467.375 C 527.558594 468.734375 534.769531 463.722656 536.132812 456.175781 C 537.496094 448.628906 532.496094 441.410156 524.96875 440.046875 Z M 524.96875 440.046875 " fill-opacity="1" fill-rule="nonzero"/></g></g></g></svg>