<svg xmlns="http://www.w3.org/2000/svg" xmlns:xlink="http://www.w3.org/1999/xlink" width="1000" zoomAndPan="magnify" viewBox="0 0 750 525.000007" height="700" preserveAspectRatio="xMidYMid meet" version="1.0"><defs><clipPath id="25343e602b"><path d="M 0.714844 0 L 749.285156 0 L 749.285156 523.945312 L 0.714844 523.945312 Z M 0.714844 0 " clip-rule="nonzero"/></clipPath><clipPath id="624a5118c6"><path d="M 56.40625 505.53125 C 67.1875 498.644531 75.71875 493.101562 94.285156 493.101562 C 112.847656 493.101562 121.382812 498.492188 132.164062 505.53125 C 144.4375 513.464844 159.710938 523.195312 187.855469 523.195312 C 216.003906 523.195312 231.273438 513.464844 243.550781 505.679688 C 254.328125 498.792969 262.863281 493.253906 281.429688 493.253906 C 299.992188 493.253906 308.527344 498.644531 319.304688 505.679688 C 331.582031 513.464844 346.855469 523.195312 375 523.195312 C 403.144531 523.195312 418.417969 513.464844 430.695312 505.679688 C 441.472656 498.792969 450.007812 493.253906 468.570312 493.253906 C 487.136719 493.253906 495.671875 498.644531 506.449219 505.679688 C 518.726562 513.464844 533.996094 523.195312 562.144531 523.195312 C 590.289062 523.195312 605.5625 513.464844 617.835938 505.679688 C 628.617188 498.792969 637.152344 493.253906 655.714844 493.253906 C 674.28125 493.253906 682.8125 498.644531 693.59375 505.679688 C 705.871094 513.464844 721.140625 523.195312 749.285156 523.195312 L 749.285156 -15.175781 L 0.714844 -15.175781 L 0.714844 523.195312 C 28.859375 523.195312 44.128906 513.464844 56.40625 505.53125 " clip-rule="nonzero"/></clipPath></defs><g clip-path="url(#25343e602b)"><g clip-path="url(#624a5118c6)"><path fill="#aed36c" d="M 749.285156 532.925781 L 0.714844 532.925781 L 0.714844 -15.027344 L 749.285156 -15.027344 Z M 749.285156 532.925781 " fill-opacity="1" fill-rule="nonzero"/></g></g></svg>