<svg id="visual" viewBox="0 0 1000 100" width="1000" height="100" xmlns="http://www.w3.org/2000/svg" xmlns:xlink="http://www.w3.org/1999/xlink" version="1.1"><path d="M530 0L526 1.8C522 3.7 514 7.3 515.8 11C517.7 14.7 529.3 18.3 535.3 22C541.3 25.7 541.7 29.3 528.5 33C515.3 36.7 488.7 40.3 481.8 44.2C475 48 488 52 494 55.8C500 59.7 499 63.3 495.8 67C492.7 70.7 487.3 74.3 480.3 78C473.3 81.7 464.7 85.3 472.2 89C479.7 92.7 503.3 96.3 515.2 98.2L527 100L0 100L0 98.2C0 96.3 0 92.7 0 89C0 85.3 0 81.7 0 78C0 74.3 0 70.7 0 67C0 63.3 0 59.7 0 55.8C0 52 0 48 0 44.2C0 40.3 0 36.7 0 33C0 29.3 0 25.7 0 22C0 18.3 0 14.7 0 11C0 7.3 0 3.7 0 1.8L0 0Z" fill="#AED36C" stroke-linecap="round" stroke-linejoin="miter"></path></svg>