<svg id="visual" viewBox="0 0 300 700" width="300" height="700" xmlns="http://www.w3.org/2000/svg" xmlns:xlink="http://www.w3.org/1999/xlink" version="1.1"><rect x="0" y="0" width="300" height="700" fill="#69AB3D"></rect><defs><linearGradient id="grad1_0" x1="0%" y1="0%" x2="100%" y2="100%"><stop offset="30%" stop-color="#69ab3d" stop-opacity="1"></stop><stop offset="70%" stop-color="#69ab3d" stop-opacity="1"></stop></linearGradient></defs><defs><linearGradient id="grad2_0" x1="0%" y1="0%" x2="100%" y2="100%"><stop offset="30%" stop-color="#69ab3d" stop-opacity="1"></stop><stop offset="70%" stop-color="#69ab3d" stop-opacity="1"></stop></linearGradient></defs><g transform="translate(300, 0)"><path d="M0 210C-18.3 172.9 -36.6 135.8 -71 123C-105.4 110.1 -156 121.5 -181.9 105C-207.7 88.5 -208.9 44.3 -210 0L0 0Z" fill="#AED36C"></path></g><g transform="translate(0, 700)"><path d="M0 -210C46 -209.9 92 -209.7 105 -181.9C118 -154 98 -98.4 110 -63.5C122 -28.6 166 -14.3 210 0L0 0Z" fill="#AED36C"></path></g></svg>